<?xml version="1.0" encoding="UTF-8"?>
<!DOCTYPE svg PUBLIC "-//W3C//DTD SVG 1.1//EN" "http://www.w3.org/Graphics/SVG/1.1/DTD/svg11.dtd">
<svg xmlns="http://www.w3.org/2000/svg" version="1.1" width="401px" height="335px" style="shape-rendering:geometricPrecision; text-rendering:geometricPrecision; image-rendering:optimizeQuality; fill-rule:evenodd; clip-rule:evenodd" xmlns:xlink="http://www.w3.org/1999/xlink">
<g><path style="opacity:0.816" fill="#fc79c4" d="M 71.5,42.5 C 80.5,50.8333 89.1667,59.5 97.5,68.5C 96.391,68.4431 95.391,68.1098 94.5,67.5C 86.4432,59.4466 78.7765,51.1133 71.5,42.5 Z"/></g>
<g><path style="opacity:1" fill="#fa0692" d="M 71.5,42.5 C 78.7765,51.1133 86.4432,59.4466 94.5,67.5C 93.7321,68.2625 93.2321,69.2625 93,70.5C 91.5587,69.13 89.892,68.13 88,67.5C 87.5172,66.552 87.3505,65.552 87.5,64.5C 85.0268,64.736 83.3601,66.0693 82.5,68.5C 85.1513,69.9865 87.4847,71.8198 89.5,74C 88.737,74.9435 87.737,75.4435 86.5,75.5C 84.1083,74.2747 81.6083,73.2747 79,72.5C 77.8035,69.9109 76.8035,67.2442 76,64.5C 75.6667,66.5 75.3333,68.5 75,70.5C 74.8142,68.0995 74.3142,65.7662 73.5,63.5C 73.1667,63.6667 72.8333,63.8333 72.5,64C 71.6929,69.083 71.1929,74.2497 71,79.5C 70.8276,73.3193 70.3276,67.3193 69.5,61.5C 68.8771,54.7453 69.5437,48.412 71.5,42.5 Z"/></g>
<g><path style="opacity:1" fill="#f80298" d="M 69.5,61.5 C 70.3276,67.3193 70.8276,73.3193 71,79.5C 71.1929,74.2497 71.6929,69.083 72.5,64C 72.8333,63.8333 73.1667,63.6667 73.5,63.5C 74.3142,65.7662 74.8142,68.0995 75,70.5C 75.3333,68.5 75.6667,66.5 76,64.5C 76.8035,67.2442 77.8035,69.9109 79,72.5C 81.6083,73.2747 84.1083,74.2747 86.5,75.5C 87.737,75.4435 88.737,74.9435 89.5,74C 87.4847,71.8198 85.1513,69.9865 82.5,68.5C 83.3601,66.0693 85.0268,64.736 87.5,64.5C 87.3505,65.552 87.5172,66.552 88,67.5C 89.892,68.13 91.5587,69.13 93,70.5C 93.2321,69.2625 93.7321,68.2625 94.5,67.5C 95.391,68.1098 96.391,68.4431 97.5,68.5C 98.5114,70.3716 99.3448,72.3716 100,74.5C 104.027,76.9234 107.527,79.9234 110.5,83.5C 110.414,84.4959 110.748,85.3292 111.5,86C 110.833,86.1667 110.167,86.3333 109.5,86.5C 107.666,85.2455 105.666,84.5789 103.5,84.5C 103.852,87.0728 103.352,89.4062 102,91.5C 100.316,89.9344 98.3161,88.9344 96,88.5C 90.1527,89.1448 84.3194,89.8115 78.5,90.5C 77.3764,88.6314 76.5431,86.6314 76,84.5C 75.8603,87.0432 75.1937,89.3766 74,91.5C 73.7508,90.376 73.2508,89.376 72.5,88.5C 71.6185,91.1303 70.9519,93.797 70.5,96.5C 70.1667,96.5 69.8333,96.5 69.5,96.5C 69.5,84.8333 69.5,73.1667 69.5,61.5 Z"/></g>
<g><path style="opacity:1" fill="#8e0afc" d="M 328.5,84.5 C 327.732,83.7375 327.232,82.7375 327,81.5C 326.612,83.7147 325.612,85.048 324,85.5C 322.839,90.4164 322.173,95.4164 322,100.5C 321.871,94.0862 321.204,87.7528 320,81.5C 319.545,85.8061 317.378,87.1394 313.5,85.5C 311.239,86.6484 308.905,87.1484 306.5,87C 307.167,86.6667 307.833,86.3333 308.5,86C 306.866,85.5065 305.199,85.3398 303.5,85.5C 305.496,88.8409 304.663,91.1743 301,92.5C 300.517,93.448 300.351,94.448 300.5,95.5C 299.5,95.5 298.5,95.5 297.5,95.5C 297.343,94.1266 297.51,92.7932 298,91.5C 302.222,88.5986 302.555,85.2653 299,81.5C 297.81,84.2002 295.977,86.3669 293.5,88C 291.433,88.5356 289.599,88.0356 288,86.5C 286.887,87.7604 286.72,88.927 287.5,90C 285.622,91.5429 284.122,93.3762 283,95.5C 281.506,94.2528 280.006,94.2528 278.5,95.5C 272.911,99.9179 268.244,105.085 264.5,111C 263.207,111.49 261.873,111.657 260.5,111.5C 277.833,93.5 295.5,75.8333 313.5,58.5C 316.25,57.2559 318.583,55.4226 320.5,53C 321.793,52.51 323.127,52.3433 324.5,52.5C 324.092,49.4007 325.259,47.0674 328,45.5C 328.5,58.4957 328.667,71.4957 328.5,84.5 Z"/></g>
<g><path style="opacity:0.706" fill="#f968bf" d="M 97.5,68.5 C 104.167,74.5 110.5,80.8333 116.5,87.5C 114.246,86.5849 112.246,85.2516 110.5,83.5C 107.527,79.9234 104.027,76.9234 100,74.5C 99.3448,72.3716 98.5114,70.3716 97.5,68.5 Z"/></g>
<g><path style="opacity:1" fill="#f7019e" d="M 110.5,83.5 C 112.246,85.2516 114.246,86.5849 116.5,87.5C 118.427,90.7673 120.761,93.7673 123.5,96.5C 122.127,96.3433 120.793,96.51 119.5,97C 119.626,98.9743 119.792,101.141 120,103.5C 121.517,105.176 122.017,106.843 121.5,108.5C 118.214,106.549 115.214,104.215 112.5,101.5C 111.692,101.808 111.025,102.308 110.5,103C 99.8333,103.667 89.1667,103.667 78.5,103C 77.8742,102.25 77.3742,101.416 77,100.5C 76,103.167 75,105.833 74,108.5C 73.0428,102.617 71.8762,102.283 70.5,107.5C 70.5,103.833 70.5,100.167 70.5,96.5C 70.9519,93.797 71.6185,91.1303 72.5,88.5C 73.2508,89.376 73.7508,90.376 74,91.5C 75.1937,89.3766 75.8603,87.0432 76,84.5C 76.5431,86.6314 77.3764,88.6314 78.5,90.5C 84.3194,89.8115 90.1527,89.1448 96,88.5C 98.3161,88.9344 100.316,89.9344 102,91.5C 103.352,89.4062 103.852,87.0728 103.5,84.5C 105.666,84.5789 107.666,85.2455 109.5,86.5C 110.167,86.3333 110.833,86.1667 111.5,86C 110.748,85.3292 110.414,84.4959 110.5,83.5 Z"/></g>
<g><path style="opacity:0.768" fill="#b36cf3" d="M 329.5,43.5 C 329.833,43.5 330.167,43.5 330.5,43.5C 330.72,86.4886 330.72,129.155 330.5,171.5C 330.167,171.5 329.833,171.5 329.5,171.5C 329.5,128.833 329.5,86.1667 329.5,43.5 Z"/></g>
<g><path style="opacity:0.765" fill="#fa73c8" d="M 116.5,87.5 C 122.167,92.5 127.5,97.8333 132.5,103.5C 129.233,101.573 126.233,99.2394 123.5,96.5C 120.761,93.7673 118.427,90.7673 116.5,87.5 Z"/></g>
<g><path style="opacity:1" fill="#f502a5" d="M 123.5,96.5 C 126.233,99.2394 129.233,101.573 132.5,103.5C 136.473,109.473 141.473,114.473 147.5,118.5C 147.5,119.167 147.5,119.833 147.5,120.5C 146.057,121.335 145.057,122.668 144.5,124.5C 142.208,123.691 140.041,123.357 138,123.5C 137.583,124.756 136.75,125.423 135.5,125.5C 134.365,122.075 132.031,119.742 128.5,118.5C 129.724,116.161 129.724,113.828 128.5,111.5C 127.585,112.328 126.919,113.328 126.5,114.5C 121.617,115.191 116.784,115.857 112,116.5C 108.644,114.963 105.477,115.297 102.5,117.5C 98.7633,114.923 95.0966,114.923 91.5,117.5C 90.6919,117.192 90.0253,116.692 89.5,116C 85.789,115.825 82.1224,115.325 78.5,114.5C 77.6667,112.833 76.8333,111.167 76,109.5C 76.059,113.084 75.3923,116.751 74,120.5C 73.8603,117.957 73.1937,115.623 72,113.5C 71.6667,117.167 71.3333,120.833 71,124.5C 70.5006,118.843 70.3339,113.176 70.5,107.5C 71.8762,102.283 73.0428,102.617 74,108.5C 75,105.833 76,103.167 77,100.5C 77.3742,101.416 77.8742,102.25 78.5,103C 89.1667,103.667 99.8333,103.667 110.5,103C 111.025,102.308 111.692,101.808 112.5,101.5C 115.214,104.215 118.214,106.549 121.5,108.5C 122.017,106.843 121.517,105.176 120,103.5C 119.792,101.141 119.626,98.9743 119.5,97C 120.793,96.51 122.127,96.3433 123.5,96.5 Z"/></g>
<g><path style="opacity:1" fill="#8206fd" d="M 328.5,84.5 C 328.5,99.1667 328.5,113.833 328.5,128.5C 326.932,127.527 325.265,127.36 323.5,128C 323.619,129.281 323.119,130.448 322,131.5C 318.589,130.707 315.089,130.207 311.5,130C 314.833,129.667 318.167,129.333 321.5,129C 321.167,128.667 320.833,128.333 320.5,128C 303.789,127.819 287.123,127.319 270.5,126.5C 269.692,126.808 269.025,127.308 268.5,128C 264.167,128.333 259.833,128.667 255.5,129C 258.167,129.333 260.833,129.667 263.5,130C 260.574,130.218 257.74,130.718 255,131.5C 252.891,130.965 252.391,129.965 253.5,128.5C 253.113,127.28 252.28,126.613 251,126.5C 249.189,127.078 247.355,127.578 245.5,128C 244.956,131.376 242.956,133.21 239.5,133.5C 237.359,137.708 234.359,141.208 230.5,144C 233.001,146.399 233.001,148.899 230.5,151.5C 228.997,152.052 227.331,152.052 225.5,151.5C 225.875,148.093 224.875,147.593 222.5,150C 219.934,154.068 216.601,157.235 212.5,159.5C 214.5,157.167 216.5,154.833 218.5,152.5C 222.833,147.833 227.167,143.167 231.5,138.5C 241.442,129.895 251.108,120.895 260.5,111.5C 261.873,111.657 263.207,111.49 264.5,111C 268.244,105.085 272.911,99.9179 278.5,95.5C 280.006,94.2528 281.506,94.2528 283,95.5C 284.122,93.3762 285.622,91.5429 287.5,90C 286.72,88.927 286.887,87.7604 288,86.5C 289.599,88.0356 291.433,88.5356 293.5,88C 295.977,86.3669 297.81,84.2002 299,81.5C 302.555,85.2653 302.222,88.5986 298,91.5C 297.51,92.7932 297.343,94.1266 297.5,95.5C 298.5,95.5 299.5,95.5 300.5,95.5C 300.351,94.448 300.517,93.448 301,92.5C 304.663,91.1743 305.496,88.8409 303.5,85.5C 305.199,85.3398 306.866,85.5065 308.5,86C 307.833,86.3333 307.167,86.6667 306.5,87C 308.905,87.1484 311.239,86.6484 313.5,85.5C 317.378,87.1394 319.545,85.8061 320,81.5C 321.204,87.7528 321.871,94.0862 322,100.5C 322.173,95.4164 322.839,90.4164 324,85.5C 325.612,85.048 326.612,83.7147 327,81.5C 327.232,82.7375 327.732,83.7375 328.5,84.5 Z"/></g>
<g><path style="opacity:1" fill="#bc76fc" d="M 330.5,43.5 C 330.167,43.5 329.833,43.5 329.5,43.5C 323.835,47.4764 318.502,52.4764 313.5,58.5C 295.5,75.8333 277.833,93.5 260.5,111.5C 251.108,120.895 241.442,129.895 231.5,138.5C 263.431,105.736 295.931,73.4031 329,41.5C 330.03,41.8361 330.53,42.5028 330.5,43.5 Z"/></g>
<g><path style="opacity:0.784" fill="#f86ecb" d="M 132.5,103.5 C 137.833,108.167 142.833,113.167 147.5,118.5C 141.473,114.473 136.473,109.473 132.5,103.5 Z"/></g>
<g><path style="opacity:1" fill="#f301aa" d="M 69.5,96.5 C 69.8333,96.5 70.1667,96.5 70.5,96.5C 70.5,100.167 70.5,103.833 70.5,107.5C 70.3339,113.176 70.5006,118.843 71,124.5C 71.3333,120.833 71.6667,117.167 72,113.5C 73.1937,115.623 73.8603,117.957 74,120.5C 75.3923,116.751 76.059,113.084 76,109.5C 76.8333,111.167 77.6667,112.833 78.5,114.5C 82.1224,115.325 85.789,115.825 89.5,116C 90.0253,116.692 90.6919,117.192 91.5,117.5C 95.0966,114.923 98.7633,114.923 102.5,117.5C 105.477,115.297 108.644,114.963 112,116.5C 116.784,115.857 121.617,115.191 126.5,114.5C 126.919,113.328 127.585,112.328 128.5,111.5C 129.724,113.828 129.724,116.161 128.5,118.5C 132.031,119.742 134.365,122.075 135.5,125.5C 128.489,120.013 127.489,120.847 132.5,128C 135.792,127.755 138.958,127.589 142,127.5C 142.49,128.793 142.657,130.127 142.5,131.5C 132.167,131.5 121.833,131.5 111.5,131.5C 111.5,130.167 111.5,128.833 111.5,127.5C 106.167,127.5 100.833,127.5 95.5,127.5C 95.5,128.833 95.5,130.167 95.5,131.5C 89.6973,130.913 84.1973,131.58 79,133.5C 78.6972,129.106 78.0305,124.773 77,120.5C 75.9277,125.811 74.9277,131.145 74,136.5C 73.7586,133.711 73.092,131.044 72,128.5C 71.0845,138.482 70.5845,148.482 70.5,158.5C 70.5,158.833 70.5,159.167 70.5,159.5C 70.1667,159.5 69.8333,159.5 69.5,159.5C 69.5,138.5 69.5,117.5 69.5,96.5 Z"/></g>
<g><path style="opacity:0.816" fill="#f86fcc" d="M 147.5,118.5 C 153.833,124.167 159.833,130.167 165.5,136.5C 163.589,135.925 161.922,134.925 160.5,133.5C 156.5,128.833 152.167,124.5 147.5,120.5C 147.5,119.833 147.5,119.167 147.5,118.5 Z"/></g>
<g><path style="opacity:1" fill="#f300b0" d="M 135.5,125.5 C 136.75,125.423 137.583,124.756 138,123.5C 140.041,123.357 142.208,123.691 144.5,124.5C 145.057,122.668 146.057,121.335 147.5,120.5C 152.167,124.5 156.5,128.833 160.5,133.5C 163.221,137.698 166.221,141.698 169.5,145.5C 168.504,145.586 167.671,145.252 167,144.5C 164.991,150.657 167.158,154.157 173.5,155C 172.23,155.9 171.23,157.066 170.5,158.5C 167.651,154.908 163.985,152.574 159.5,151.5C 160.371,148.728 160.371,146.062 159.5,143.5C 156.668,144.581 154.002,144.415 151.5,143C 150.215,140.577 148.382,138.744 146,137.5C 145.5,137.833 145,138.167 144.5,138.5C 145.648,140.149 146.981,141.649 148.5,143C 147.57,143.991 146.404,144.491 145,144.5C 125.622,143.574 104.622,143.241 82,143.5C 80.4152,144.376 79.4152,145.709 79,147.5C 78.8038,145.714 77.9705,144.381 76.5,143.5C 75.1038,145.972 74.2704,148.638 74,151.5C 73.6667,149.167 73.3333,146.833 73,144.5C 72.646,149.389 71.8127,154.056 70.5,158.5C 70.5845,148.482 71.0845,138.482 72,128.5C 73.092,131.044 73.7586,133.711 74,136.5C 74.9277,131.145 75.9277,125.811 77,120.5C 78.0305,124.773 78.6972,129.106 79,133.5C 84.1973,131.58 89.6973,130.913 95.5,131.5C 95.5,130.167 95.5,128.833 95.5,127.5C 100.833,127.5 106.167,127.5 111.5,127.5C 111.5,128.833 111.5,130.167 111.5,131.5C 121.833,131.5 132.167,131.5 142.5,131.5C 142.657,130.127 142.49,128.793 142,127.5C 138.958,127.589 135.792,127.755 132.5,128C 127.489,120.847 128.489,120.013 135.5,125.5 Z"/></g>
<g><path style="opacity:1" fill="#7502fe" d="M 328.5,128.5 C 328.5,141.833 328.5,155.167 328.5,168.5C 326.621,168.607 326.288,168.107 327.5,167C 326.809,165.933 326.309,164.766 326,163.5C 324.025,163.492 322.191,162.492 320.5,160.5C 318.783,161.668 318.116,163.335 318.5,165.5C 287.16,165.167 255.826,165.5 224.5,166.5C 224.167,167.5 223.5,168.167 222.5,168.5C 220.668,167.752 219.001,166.752 217.5,165.5C 215.833,166.667 214.167,167.833 212.5,169C 206.064,166.932 201.73,169.099 199.5,175.5C 190.851,182.982 182.351,190.648 174,198.5C 173.536,199.094 173.369,199.761 173.5,200.5C 162.164,212.001 150.331,223.001 138,233.5C 137.506,235.134 137.34,236.801 137.5,238.5C 136.5,238.167 135.833,237.5 135.5,236.5C 135.351,235.448 135.517,234.448 136,233.5C 138.998,231.667 141.498,229.334 143.5,226.5C 144.683,225.496 146.016,224.662 147.5,224C 162.423,209.245 177.09,194.411 191.5,179.5C 192.167,178.167 192.833,176.833 193.5,175.5C 195.326,173.853 196.66,171.853 197.5,169.5C 198.833,169.5 200.167,169.5 201.5,169.5C 205.167,166.167 208.833,162.833 212.5,159.5C 216.601,157.235 219.934,154.068 222.5,150C 224.875,147.593 225.875,148.093 225.5,151.5C 227.331,152.052 228.997,152.052 230.5,151.5C 233.001,148.899 233.001,146.399 230.5,144C 234.359,141.208 237.359,137.708 239.5,133.5C 242.956,133.21 244.956,131.376 245.5,128C 247.355,127.578 249.189,127.078 251,126.5C 252.28,126.613 253.113,127.28 253.5,128.5C 252.391,129.965 252.891,130.965 255,131.5C 257.74,130.718 260.574,130.218 263.5,130C 260.833,129.667 258.167,129.333 255.5,129C 259.833,128.667 264.167,128.333 268.5,128C 269.025,127.308 269.692,126.808 270.5,126.5C 287.123,127.319 303.789,127.819 320.5,128C 320.833,128.333 321.167,128.667 321.5,129C 318.167,129.333 314.833,129.667 311.5,130C 315.089,130.207 318.589,130.707 322,131.5C 323.119,130.448 323.619,129.281 323.5,128C 325.265,127.36 326.932,127.527 328.5,128.5 Z"/></g>
<g><path style="opacity:1" fill="#f000b8" d="M 169.5,145.5 C 172.09,148.662 175.423,150.828 179.5,152C 185.557,156.872 190.224,162.706 193.5,169.5C 193.132,171.175 192.132,172.175 190.5,172.5C 188.771,173.117 187.271,174.117 186,175.5C 182.886,172.704 179.719,170.038 176.5,167.5C 175.692,167.808 175.025,168.308 174.5,169C 143.168,169.5 111.835,169.667 80.5,169.5C 80.2234,164.613 79.0568,159.946 77,155.5C 76.6667,161.833 76.3333,168.167 76,174.5C 75.6924,175.308 75.1924,175.975 74.5,176.5C 73.7763,171.142 72.9429,165.809 72,160.5C 71.8195,163.695 71.3195,166.695 70.5,169.5C 70.5,166.167 70.5,162.833 70.5,159.5C 70.5,159.167 70.5,158.833 70.5,158.5C 71.8127,154.056 72.646,149.389 73,144.5C 73.3333,146.833 73.6667,149.167 74,151.5C 74.2704,148.638 75.1038,145.972 76.5,143.5C 77.9705,144.381 78.8038,145.714 79,147.5C 79.4152,145.709 80.4152,144.376 82,143.5C 104.622,143.241 125.622,143.574 145,144.5C 146.404,144.491 147.57,143.991 148.5,143C 146.981,141.649 145.648,140.149 144.5,138.5C 145,138.167 145.5,137.833 146,137.5C 148.382,138.744 150.215,140.577 151.5,143C 154.002,144.415 156.668,144.581 159.5,143.5C 160.371,146.062 160.371,148.728 159.5,151.5C 163.985,152.574 167.651,154.908 170.5,158.5C 171.23,157.066 172.23,155.9 173.5,155C 167.158,154.157 164.991,150.657 167,144.5C 167.671,145.252 168.504,145.586 169.5,145.5 Z"/></g>
<g><path style="opacity:0.573" fill="#cc9dff" d="M 231.5,138.5 C 227.167,143.167 222.833,147.833 218.5,152.5C 218.167,152.5 217.833,152.5 217.5,152.5C 221.167,146.833 225.833,142.167 231.5,138.5 Z"/></g>
<g><path style="opacity:1" fill="#ef43c0" d="M 160.5,133.5 C 161.922,134.925 163.589,135.925 165.5,136.5C 176.298,146.798 186.965,157.298 197.5,168C 198.793,168.49 200.127,168.657 201.5,168.5C 201.5,168.833 201.5,169.167 201.5,169.5C 200.167,169.5 198.833,169.5 197.5,169.5C 195.79,171.2 193.79,172.533 191.5,173.5C 190.893,173.376 190.56,173.043 190.5,172.5C 192.132,172.175 193.132,171.175 193.5,169.5C 190.224,162.706 185.557,156.872 179.5,152C 175.423,150.828 172.09,148.662 169.5,145.5C 166.221,141.698 163.221,137.698 160.5,133.5 Z"/></g>
<g><path style="opacity:0.315" fill="#ef64c6" d="M 71.5,42.5 C 69.5437,48.412 68.8771,54.7453 69.5,61.5C 69.5,73.1667 69.5,84.8333 69.5,96.5C 69.5,117.5 69.5,138.5 69.5,159.5C 69.5,164.167 69.5,168.833 69.5,173.5C 69.1667,173.5 68.8333,173.5 68.5,173.5C 68.3333,129.499 68.5,85.4987 69,41.5C 70.159,40.434 70.9924,40.7673 71.5,42.5 Z"/></g>
<g><path style="opacity:1" fill="#7a11e6" d="M 329.5,43.5 C 329.5,86.1667 329.5,128.833 329.5,171.5C 329.167,171.5 328.833,171.5 328.5,171.5C 328.5,170.5 328.5,169.5 328.5,168.5C 328.5,155.167 328.5,141.833 328.5,128.5C 328.5,113.833 328.5,99.1667 328.5,84.5C 328.667,71.4957 328.5,58.4957 328,45.5C 325.259,47.0674 324.092,49.4007 324.5,52.5C 323.127,52.3433 321.793,52.51 320.5,53C 318.583,55.4226 316.25,57.2559 313.5,58.5C 318.502,52.4764 323.835,47.4764 329.5,43.5 Z"/></g>
<g><path style="opacity:0.949" fill="#ab6bfc" d="M 217.5,152.5 C 217.833,152.5 218.167,152.5 218.5,152.5C 216.5,154.833 214.5,157.167 212.5,159.5C 208.833,162.833 205.167,166.167 201.5,169.5C 201.5,169.167 201.5,168.833 201.5,168.5C 206.548,162.785 211.881,157.452 217.5,152.5 Z"/></g>
<g><path style="opacity:1" fill="#ed00be" d="M 190.5,172.5 C 190.56,173.043 190.893,173.376 191.5,173.5C 193.79,172.533 195.79,171.2 197.5,169.5C 196.66,171.853 195.326,173.853 193.5,175.5C 188.858,179.136 184.191,182.803 179.5,186.5C 177.319,186.716 175.653,185.883 174.5,184C 143.167,183.667 111.833,183.333 80.5,183C 79.9535,182.075 79.2868,181.242 78.5,180.5C 77.0119,185.404 75.8452,190.404 75,195.5C 74.273,192.136 73.4396,188.803 72.5,185.5C 71.8076,186.025 71.3076,186.692 71,187.5C 70.5005,181.509 70.3338,175.509 70.5,169.5C 71.3195,166.695 71.8195,163.695 72,160.5C 72.9429,165.809 73.7763,171.142 74.5,176.5C 75.1924,175.975 75.6924,175.308 76,174.5C 76.3333,168.167 76.6667,161.833 77,155.5C 79.0568,159.946 80.2234,164.613 80.5,169.5C 111.835,169.667 143.168,169.5 174.5,169C 175.025,168.308 175.692,167.808 176.5,167.5C 179.719,170.038 182.886,172.704 186,175.5C 187.271,174.117 188.771,173.117 190.5,172.5 Z"/></g>
<g><path style="opacity:1" fill="#6801fe" d="M 328.5,168.5 C 328.5,169.5 328.5,170.5 328.5,171.5C 322.243,177.985 315.91,184.485 309.5,191C 308.906,191.464 308.239,191.631 307.5,191.5C 306.5,191.5 305.5,191.5 304.5,191.5C 304.5,192.5 304.5,193.5 304.5,194.5C 302.453,194.489 300.453,194.156 298.5,193.5C 296.423,194.937 294.09,195.604 291.5,195.5C 291.88,198.792 290.547,201.125 287.5,202.5C 255.875,201.674 224.209,201.174 192.5,201C 191.809,199.933 191.309,198.766 191,197.5C 187.885,199.647 185.052,202.147 182.5,205C 179.749,205.108 177.082,205.941 174.5,207.5C 173.417,206.635 173.251,205.635 174,204.5C 175.367,205.524 176.2,205.024 176.5,203C 176.252,201.251 175.252,200.418 173.5,200.5C 173.369,199.761 173.536,199.094 174,198.5C 182.351,190.648 190.851,182.982 199.5,175.5C 201.73,169.099 206.064,166.932 212.5,169C 214.167,167.833 215.833,166.667 217.5,165.5C 219.001,166.752 220.668,167.752 222.5,168.5C 223.5,168.167 224.167,167.5 224.5,166.5C 255.826,165.5 287.16,165.167 318.5,165.5C 318.116,163.335 318.783,161.668 320.5,160.5C 322.191,162.492 324.025,163.492 326,163.5C 326.309,164.766 326.809,165.933 327.5,167C 326.288,168.107 326.621,168.607 328.5,168.5 Z"/></g>
<g><path style="opacity:1" fill="#eb00c4" d="M 69.5,159.5 C 69.8333,159.5 70.1667,159.5 70.5,159.5C 70.5,162.833 70.5,166.167 70.5,169.5C 70.3338,175.509 70.5005,181.509 71,187.5C 71.3076,186.692 71.8076,186.025 72.5,185.5C 73.4396,188.803 74.273,192.136 75,195.5C 75.8452,190.404 77.0119,185.404 78.5,180.5C 79.2868,181.242 79.9535,182.075 80.5,183C 111.833,183.333 143.167,183.667 174.5,184C 175.653,185.883 177.319,186.716 179.5,186.5C 177.51,187.934 175.843,189.768 174.5,192C 173.552,192.483 172.552,192.649 171.5,192.5C 170.757,196.915 168.424,200.248 164.5,202.5C 162.173,202.753 160.173,202.086 158.5,200.5C 131.84,199.333 105.173,199.167 78.5,200C 77.2062,202.087 76.0395,204.254 75,206.5C 74.0809,201.476 73.0809,196.476 72,191.5C 71.1082,198.476 70.6082,205.476 70.5,212.5C 70.5,216.167 70.5,219.833 70.5,223.5C 70.1667,223.5 69.8333,223.5 69.5,223.5C 69.5,206.833 69.5,190.167 69.5,173.5C 69.5,168.833 69.5,164.167 69.5,159.5 Z"/></g>
<g><path style="opacity:1" fill="#d005d4" d="M 193.5,175.5 C 192.833,176.833 192.167,178.167 191.5,179.5C 187.537,182.451 183.537,185.451 179.5,188.5C 174.177,195.481 168.177,201.815 161.5,207.5C 162.075,205.589 163.075,203.922 164.5,202.5C 168.424,200.248 170.757,196.915 171.5,192.5C 172.552,192.649 173.552,192.483 174.5,192C 175.843,189.768 177.51,187.934 179.5,186.5C 184.191,182.803 188.858,179.136 193.5,175.5 Z"/></g>
<g><path style="opacity:1" fill="#058cfc" d="M 329.5,172.5 C 329.5,189.5 329.5,206.5 329.5,223.5C 328.521,220.375 328.187,217.042 328.5,213.5C 328.5,209.5 328.5,205.5 328.5,201.5C 324.853,200.242 321.519,200.909 318.5,203.5C 316.952,200.049 314.952,199.716 312.5,202.5C 310.677,201.253 308.677,200.586 306.5,200.5C 307.382,197.615 308.716,194.948 310.5,192.5C 317.295,186.216 323.629,179.549 329.5,172.5 Z"/></g>
<g><path style="opacity:1" fill="#e900cb" d="M 164.5,202.5 C 163.075,203.922 162.075,205.589 161.5,207.5C 160.391,207.557 159.391,207.89 158.5,208.5C 157.5,208.5 156.5,208.5 155.5,208.5C 155.649,209.552 155.483,210.552 155,211.5C 153.324,212.061 151.991,213.061 151,214.5C 151.017,209.793 149.35,208.793 146,211.5C 145.621,213.57 146.455,215.07 148.5,216C 147.478,218.316 145.978,218.816 144,217.5C 143.5,218 143,218.5 142.5,219C 121.833,219.667 101.167,219.667 80.5,219C 79.7734,217.601 79.2734,216.101 79,214.5C 77.5399,216.972 76.5399,219.639 76,222.5C 74.8063,220.377 74.1397,218.043 74,215.5C 73.6667,216.833 73.3333,218.167 73,219.5C 71.957,217.167 71.1237,214.834 70.5,212.5C 70.6082,205.476 71.1082,198.476 72,191.5C 73.0809,196.476 74.0809,201.476 75,206.5C 76.0395,204.254 77.2062,202.087 78.5,200C 105.173,199.167 131.84,199.333 158.5,200.5C 160.173,202.086 162.173,202.753 164.5,202.5 Z"/></g>
<g><path style="opacity:1" fill="#0385fe" d="M 310.5,192.5 C 308.716,194.948 307.382,197.615 306.5,200.5C 308.677,200.586 310.677,201.253 312.5,202.5C 314.952,199.716 316.952,200.049 318.5,203.5C 321.519,200.909 324.853,200.242 328.5,201.5C 328.5,205.5 328.5,209.5 328.5,213.5C 317.468,212.585 306.468,212.251 295.5,212.5C 295.5,213.5 295.5,214.5 295.5,215.5C 294.5,215.5 293.5,215.5 292.5,215.5C 293.404,211.788 295.071,208.455 297.5,205.5C 301.191,200.381 305.524,196.047 310.5,192.5 Z"/></g>
<g><path style="opacity:0.294" fill="#5ea7f7" d="M 329.5,171.5 C 329.833,171.5 330.167,171.5 330.5,171.5C 330.433,173.401 330.767,175.234 331.5,177C 330.842,217.306 330.175,257.473 329.5,297.5C 329.5,283.5 329.5,269.5 329.5,255.5C 329.5,244.833 329.5,234.167 329.5,223.5C 329.5,206.5 329.5,189.5 329.5,172.5C 329.5,172.167 329.5,171.833 329.5,171.5 Z"/></g>
<g><path style="opacity:1" fill="#a306e8" d="M 191.5,179.5 C 177.09,194.411 162.423,209.245 147.5,224C 146.016,224.662 144.683,225.496 143.5,226.5C 147.422,222.239 151.422,217.906 155.5,213.5C 156.248,211.668 157.248,210.001 158.5,208.5C 159.391,207.89 160.391,207.557 161.5,207.5C 168.177,201.815 174.177,195.481 179.5,188.5C 183.537,185.451 187.537,182.451 191.5,179.5 Z"/></g>
<g><path style="opacity:1" fill="#037ffd" d="M 297.5,205.5 C 295.071,208.455 293.404,211.788 292.5,215.5C 293.5,215.5 294.5,215.5 295.5,215.5C 295.5,214.5 295.5,213.5 295.5,212.5C 306.468,212.251 317.468,212.585 328.5,213.5C 328.187,217.042 328.521,220.375 329.5,223.5C 329.5,234.167 329.5,244.833 329.5,255.5C 328.549,254.081 328.216,252.415 328.5,250.5C 328.5,246.833 328.5,243.167 328.5,239.5C 328.665,235.818 328.499,232.152 328,228.5C 327.3,226.968 326.134,225.968 324.5,225.5C 312.404,226.551 300.07,226.718 287.5,226C 285.608,225.027 283.608,224.36 281.5,224C 283.16,222.512 284.16,220.679 284.5,218.5C 287.474,216.569 289.641,213.903 291,210.5C 292.777,208.21 294.944,206.543 297.5,205.5 Z"/></g>
<g><path style="opacity:1" fill="#e700d0" d="M 158.5,208.5 C 157.248,210.001 156.248,211.668 155.5,213.5C 148.406,219.043 141.739,225.043 135.5,231.5C 132.635,231.945 130.135,231.278 128,229.5C 120.234,230.817 112.234,231.483 104,231.5C 96.1667,231.333 88.3333,231.167 80.5,231C 79.8742,230.25 79.3742,229.416 79,228.5C 77.9568,230.701 77.1235,233.034 76.5,235.5C 75.6667,233.5 74.8333,231.5 74,229.5C 72.9076,231.931 71.7409,231.931 70.5,229.5C 70.5,227.5 70.5,225.5 70.5,223.5C 70.5,219.833 70.5,216.167 70.5,212.5C 71.1237,214.834 71.957,217.167 73,219.5C 73.3333,218.167 73.6667,216.833 74,215.5C 74.1397,218.043 74.8063,220.377 76,222.5C 76.5399,219.639 77.5399,216.972 79,214.5C 79.2734,216.101 79.7734,217.601 80.5,219C 101.167,219.667 121.833,219.667 142.5,219C 143,218.5 143.5,218 144,217.5C 145.978,218.816 147.478,218.316 148.5,216C 146.455,215.07 145.621,213.57 146,211.5C 149.35,208.793 151.017,209.793 151,214.5C 151.991,213.061 153.324,212.061 155,211.5C 155.483,210.552 155.649,209.552 155.5,208.5C 156.5,208.5 157.5,208.5 158.5,208.5 Z"/></g>
<g><path style="opacity:1" fill="#5d01fe" d="M 307.5,191.5 C 307.631,192.239 307.464,192.906 307,193.5C 296.527,202.64 286.694,212.473 277.5,223C 276.906,223.464 276.239,223.631 275.5,223.5C 274.325,223.281 273.325,223.614 272.5,224.5C 268.773,229.895 264.107,234.228 258.5,237.5C 258.848,234.981 260.181,233.147 262.5,232C 259.384,230.376 257.55,231.543 257,235.5C 256.086,234.346 255.253,234.513 254.5,236C 220.167,236.333 185.833,236.667 151.5,237C 151,237.5 150.5,238 150,238.5C 147.993,237.331 145.827,236.665 143.5,236.5C 145.236,240.428 146.903,244.428 148.5,248.5C 145.436,245.43 142.103,242.763 138.5,240.5C 138.167,239.833 137.833,239.167 137.5,238.5C 137.34,236.801 137.506,235.134 138,233.5C 150.331,223.001 162.164,212.001 173.5,200.5C 175.252,200.418 176.252,201.251 176.5,203C 176.2,205.024 175.367,205.524 174,204.5C 173.251,205.635 173.417,206.635 174.5,207.5C 177.082,205.941 179.749,205.108 182.5,205C 185.052,202.147 187.885,199.647 191,197.5C 191.309,198.766 191.809,199.933 192.5,201C 224.209,201.174 255.875,201.674 287.5,202.5C 290.547,201.125 291.88,198.792 291.5,195.5C 294.09,195.604 296.423,194.937 298.5,193.5C 300.453,194.156 302.453,194.489 304.5,194.5C 304.5,193.5 304.5,192.5 304.5,191.5C 305.5,191.5 306.5,191.5 307.5,191.5 Z"/></g>
<g><path style="opacity:1" fill="#335cfe" d="M 328.5,171.5 C 328.833,171.5 329.167,171.5 329.5,171.5C 329.5,171.833 329.5,172.167 329.5,172.5C 323.629,179.549 317.295,186.216 310.5,192.5C 305.524,196.047 301.191,200.381 297.5,205.5C 294.944,206.543 292.777,208.21 291,210.5C 289.641,213.903 287.474,216.569 284.5,218.5C 281.001,221.166 278.001,224.333 275.5,228C 272.603,230.41 269.603,232.577 266.5,234.5C 269.878,231.124 272.878,227.457 275.5,223.5C 276.239,223.631 276.906,223.464 277.5,223C 286.694,212.473 296.527,202.64 307,193.5C 307.464,192.906 307.631,192.239 307.5,191.5C 308.239,191.631 308.906,191.464 309.5,191C 315.91,184.485 322.243,177.985 328.5,171.5 Z"/></g>
<g><path style="opacity:1" fill="#0c79fd" d="M 284.5,218.5 C 284.16,220.679 283.16,222.512 281.5,224C 283.608,224.36 285.608,225.027 287.5,226C 300.07,226.718 312.404,226.551 324.5,225.5C 326.134,225.968 327.3,226.968 328,228.5C 328.499,232.152 328.665,235.818 328.5,239.5C 326.657,238.754 325.324,237.421 324.5,235.5C 323.167,239.5 321.833,239.5 320.5,235.5C 319.614,236.325 319.281,237.325 319.5,238.5C 307.32,238.55 295.32,238.55 283.5,238.5C 278.605,238.554 276.438,240.888 277,245.5C 279.127,247.114 280.627,249.114 281.5,251.5C 276.369,246.87 271.369,242.037 266.5,237C 265.552,236.517 264.552,236.351 263.5,236.5C 263.973,235.094 264.973,234.427 266.5,234.5C 269.603,232.577 272.603,230.41 275.5,228C 278.001,224.333 281.001,221.166 284.5,218.5 Z"/></g>
<g><path style="opacity:1" fill="#c40ee0" d="M 155.5,213.5 C 151.422,217.906 147.422,222.239 143.5,226.5C 141.498,229.334 138.998,231.667 136,233.5C 135.517,234.448 135.351,235.448 135.5,236.5C 134.833,236.5 134.167,236.5 133.5,236.5C 133.392,234.486 134.058,232.82 135.5,231.5C 141.739,225.043 148.406,219.043 155.5,213.5 Z"/></g>
<g><path style="opacity:1" fill="#e508d7" d="M 135.5,231.5 C 134.058,232.82 133.392,234.486 133.5,236.5C 124.833,244.833 116.167,253.167 107.5,261.5C 107.215,259.712 107.548,258.045 108.5,256.5C 110.214,257.609 110.881,256.942 110.5,254.5C 111.5,254.5 112.5,254.5 113.5,254.5C 113.081,251.675 114.081,249.509 116.5,248C 113.825,245.808 112.492,243.308 112.5,240.5C 111.741,243.157 111.074,245.823 110.5,248.5C 99.8489,249.666 89.1823,249.832 78.5,249C 77.8448,247.513 76.8448,246.347 75.5,245.5C 73.9293,247.882 73.096,250.549 73,253.5C 71.4175,245.594 70.5841,237.594 70.5,229.5C 71.7409,231.931 72.9076,231.931 74,229.5C 74.8333,231.5 75.6667,233.5 76.5,235.5C 77.1235,233.034 77.9568,230.701 79,228.5C 79.3742,229.416 79.8742,230.25 80.5,231C 88.3333,231.167 96.1667,231.333 104,231.5C 112.234,231.483 120.234,230.817 128,229.5C 130.135,231.278 132.635,231.945 135.5,231.5 Z"/></g>
<g><path style="opacity:1" fill="#0373fd" d="M 328.5,239.5 C 328.5,243.167 328.5,246.833 328.5,250.5C 327.883,250.611 327.383,250.944 327,251.5C 326.261,249.779 325.427,248.113 324.5,246.5C 323.98,251.47 322.48,251.803 320,247.5C 309.423,249.463 298.59,250.13 287.5,249.5C 287.065,251.703 287.065,253.703 287.5,255.5C 286.833,255.5 286.167,255.5 285.5,255.5C 283.833,254.5 282.5,253.167 281.5,251.5C 280.627,249.114 279.127,247.114 277,245.5C 276.438,240.888 278.605,238.554 283.5,238.5C 295.32,238.55 307.32,238.55 319.5,238.5C 319.281,237.325 319.614,236.325 320.5,235.5C 321.833,239.5 323.167,239.5 324.5,235.5C 325.324,237.421 326.657,238.754 328.5,239.5 Z"/></g>
<g><path style="opacity:1" fill="#e10adf" d="M 69.5,223.5 C 69.8333,223.5 70.1667,223.5 70.5,223.5C 70.5,225.5 70.5,227.5 70.5,229.5C 70.5841,237.594 71.4175,245.594 73,253.5C 73.096,250.549 73.9293,247.882 75.5,245.5C 76.8448,246.347 77.8448,247.513 78.5,249C 89.1823,249.832 99.8489,249.666 110.5,248.5C 111.074,245.823 111.741,243.157 112.5,240.5C 112.492,243.308 113.825,245.808 116.5,248C 114.081,249.509 113.081,251.675 113.5,254.5C 112.5,254.5 111.5,254.5 110.5,254.5C 110.881,256.942 110.214,257.609 108.5,256.5C 107.548,258.045 107.215,259.712 107.5,261.5C 95.7853,273.881 83.7853,285.881 71.5,297.5C 70.7784,297.082 70.2784,296.416 70,295.5C 69.5,271.502 69.3334,247.502 69.5,223.5 Z"/></g>
<g><path style="opacity:0.722" fill="#a47dfc" d="M 138.5,240.5 C 142.103,242.763 145.436,245.43 148.5,248.5C 164.632,265.132 180.965,281.632 197.5,298C 198.833,298.667 200.167,298.667 201.5,298C 202.789,296.198 204.456,295.031 206.5,294.5C 204.554,298.317 201.554,300.15 197.5,300C 177.632,280.299 157.965,260.465 138.5,240.5 Z"/></g>
<g><path style="opacity:1" fill="#056bfb" d="M 328.5,250.5 C 328.216,252.415 328.549,254.081 329.5,255.5C 329.5,269.5 329.5,283.5 329.5,297.5C 329.214,299.933 328.548,299.933 327.5,297.5C 325.5,295.167 323.5,292.833 321.5,290.5C 324.094,290.682 326.261,291.682 328,293.5C 328.667,282.167 328.667,270.833 328,259.5C 327.667,260.833 327.333,262.167 327,263.5C 325.836,260.865 324.669,258.198 323.5,255.5C 322.066,256.936 320.9,258.602 320,260.5C 317.446,259.229 314.613,258.562 311.5,258.5C 308.3,258.601 305.3,259.268 302.5,260.5C 300.213,258.344 297.713,258.011 295,259.5C 293.092,256.668 292.259,257.001 292.5,260.5C 290.5,259.167 288.833,257.5 287.5,255.5C 287.065,253.703 287.065,251.703 287.5,249.5C 298.59,250.13 309.423,249.463 320,247.5C 322.48,251.803 323.98,251.47 324.5,246.5C 325.427,248.113 326.261,249.779 327,251.5C 327.383,250.944 327.883,250.611 328.5,250.5 Z"/></g>
<g><path style="opacity:0.582" fill="#e564e0" d="M 68.5,173.5 C 68.8333,173.5 69.1667,173.5 69.5,173.5C 69.5,190.167 69.5,206.833 69.5,223.5C 69.3334,247.502 69.5,271.502 70,295.5C 70.2784,296.416 70.7784,297.082 71.5,297.5C 70.9924,299.233 70.159,299.566 69,298.5C 68.5,256.835 68.3333,215.168 68.5,173.5 Z"/></g>
<g><path style="opacity:1" fill="#5104fd" d="M 258.5,237.5 C 256.242,237.775 255.908,238.775 257.5,240.5C 256.635,241.583 255.635,241.749 254.5,241C 254.833,240.667 255.167,240.333 255.5,240C 254.552,239.517 253.552,239.351 252.5,239.5C 251.486,242.507 250.486,245.507 249.5,248.5C 248.5,248.5 247.5,248.5 246.5,248.5C 246.5,249.5 246.5,250.5 246.5,251.5C 245.5,251.5 244.5,251.5 243.5,251.5C 243.5,252.5 243.5,253.5 243.5,254.5C 240.43,255.729 237.43,257.229 234.5,259C 235.517,260.049 235.684,261.216 235,262.5C 234.667,262.167 234.333,261.833 234,261.5C 233.506,263.134 233.34,264.801 233.5,266.5C 230.805,269.526 228.138,272.526 225.5,275.5C 220.833,278.167 217.167,281.833 214.5,286.5C 211.527,288.806 208.86,291.473 206.5,294.5C 204.456,295.031 202.789,296.198 201.5,298C 200.167,298.667 198.833,298.667 197.5,298C 180.965,281.632 164.632,265.132 148.5,248.5C 146.903,244.428 145.236,240.428 143.5,236.5C 145.827,236.665 147.993,237.331 150,238.5C 150.5,238 151,237.5 151.5,237C 185.833,236.667 220.167,236.333 254.5,236C 255.253,234.513 256.086,234.346 257,235.5C 257.55,231.543 259.384,230.376 262.5,232C 260.181,233.147 258.848,234.981 258.5,237.5 Z"/></g>
<g><path style="opacity:1" fill="#672bf8" d="M 275.5,223.5 C 272.878,227.457 269.878,231.124 266.5,234.5C 264.973,234.427 263.973,235.094 263.5,236.5C 253.833,246.833 243.833,256.833 233.5,266.5C 233.34,264.801 233.506,263.134 234,261.5C 234.333,261.833 234.667,262.167 235,262.5C 235.684,261.216 235.517,260.049 234.5,259C 237.43,257.229 240.43,255.729 243.5,254.5C 243.5,253.5 243.5,252.5 243.5,251.5C 244.5,251.5 245.5,251.5 246.5,251.5C 246.5,250.5 246.5,249.5 246.5,248.5C 247.5,248.5 248.5,248.5 249.5,248.5C 250.486,245.507 251.486,242.507 252.5,239.5C 253.552,239.351 254.552,239.517 255.5,240C 255.167,240.333 254.833,240.667 254.5,241C 255.635,241.749 256.635,241.583 257.5,240.5C 255.908,238.775 256.242,237.775 258.5,237.5C 264.107,234.228 268.773,229.895 272.5,224.5C 273.325,223.614 274.325,223.281 275.5,223.5 Z"/></g>
<g><path style="opacity:0.949" fill="#4f93f6" d="M 285.5,255.5 C 286.167,255.5 286.833,255.5 287.5,255.5C 288.833,257.5 290.5,259.167 292.5,260.5C 295.902,263.895 298.902,267.562 301.5,271.5C 295.833,266.5 290.5,261.167 285.5,255.5 Z"/></g>
<g><path style="opacity:1" fill="#0966fd" d="M 321.5,290.5 C 320.952,288.468 319.619,287.468 317.5,287.5C 311.833,282.5 306.5,277.167 301.5,271.5C 298.902,267.562 295.902,263.895 292.5,260.5C 292.259,257.001 293.092,256.668 295,259.5C 297.713,258.011 300.213,258.344 302.5,260.5C 305.3,259.268 308.3,258.601 311.5,258.5C 314.613,258.562 317.446,259.229 320,260.5C 320.9,258.602 322.066,256.936 323.5,255.5C 324.669,258.198 325.836,260.865 327,263.5C 327.333,262.167 327.667,260.833 328,259.5C 328.667,270.833 328.667,282.167 328,293.5C 326.261,291.682 324.094,290.682 321.5,290.5 Z"/></g>
<g><path style="opacity:0.016" fill="#a87cfd" d="M 225.5,275.5 C 222.167,279.5 218.5,283.167 214.5,286.5C 217.167,281.833 220.833,278.167 225.5,275.5 Z"/></g>
<g><path style="opacity:0.024" fill="#6e9dfb" d="M 317.5,287.5 C 319.619,287.468 320.952,288.468 321.5,290.5C 323.5,292.833 325.5,295.167 327.5,297.5C 323.188,295.188 319.855,291.855 317.5,287.5 Z"/></g>
</svg>
